<svg xmlns="http://www.w3.org/2000/svg" width="146.001" height="146" viewBox="0 0 146.001 146">
  <path id="Subtraction_2" data-name="Subtraction 2" d="M179.679,166.286H143.042c1.831-2.606,3.585-5.044,5.361-7.454,12.556-17.043,22.837-44.611,32.78-71.271,4.687-12.569,9.534-25.565,14.5-37.075v99.8a16,16,0,0,1-16,16Zm-67.842,0H65.678a16,16,0,0,1-16-16V70.475c17.838,20.969,28.157,38.7,40.1,59.225,5.337,9.169,10.854,18.649,17.466,29.132,1.524,2.417,3.025,4.855,4.587,7.452Zm15.926-43.077c-1.883,0-3.858-1.1-5.869-3.259a39.668,39.668,0,0,1-5.775-8.835c-3.453-6.773-7.073-16.44-10.759-28.734-6.712-22.387-12.152-48.514-14.8-62.095H164c-2.519,13.589-7.718,39.724-14.216,62.095-3.571,12.293-7.1,21.961-10.49,28.734a39.16,39.16,0,0,1-5.692,8.835C131.61,122.112,129.645,123.209,127.762,123.209Z" transform="translate(-49.678 -20.286)" fill="#fff"/>
</svg>
